<svg height="511pt" viewBox="-12 1 511 511.99901" width="511pt" xmlns="http://www.w3.org/2000/svg" xmlns:xlink="http://www.w3.org/1999/xlink"><linearGradient id="a"><stop offset="0" stop-color="#662d91"/><stop offset=".437" stop-color="#3873b3"/><stop offset="1" stop-color="#00c9dd"/></linearGradient><linearGradient id="b" gradientTransform="matrix(1.052428 0 0 -1.052428 -12.024387 515.689878)" gradientUnits="userSpaceOnUse" x1="53.7131" x2="430.4107" xlink:href="#a" y1="433.4527" y2="56.7631"/><linearGradient id="c" gradientTransform="matrix(1.052428 0 0 -1.052428 -12.024387 515.689878)" gradientUnits="userSpaceOnUse" x1="86.9968" x2="463.6944" xlink:href="#a" y1="466.7364" y2="90.0388"/><path d="m185.148438 296.449219v166.582031l-114.152344 6.328125c-11.765625.664063-20.765625 10.734375-20.105469 22.5.636719 11.300781 9.984375 20.136719 21.300781 20.140625h276.277344c11.785156-.003906 21.332031-9.558594 21.332031-21.339844-.003906-11.316406-8.839843-20.664062-20.140625-21.300781l-114.152344-6.328125v-166.582031l74.652344-77.765625c55.878906 33.007812 127.929688 14.46875 160.9375-41.410156 33.007813-55.878907 14.46875-127.933594-41.410156-160.941407-18.136719-10.710937-38.820312-16.3554685-59.882812-16.332031-55.0625.332031-102.609376 38.609375-114.6875 92.328125h-246.230469c-4.636719.003906-8.390625 3.765625-8.386719 8.398437 0 2.164063.835938 4.242188 2.332031 5.800782zm193.046874-204.121094v-49.867187c12.242188 1.355468 23.964844 5.703124 34.128907 12.660156l-29.761719 37.207031zm-21.703124 0-33.785157-33.785156c11.132813-8.886719 24.546875-14.453125 38.703125-16.046875v49.832031zm-45.644532-21.90625 21.90625 21.90625h-34.117187c2.808593-7.9375 6.9375-15.34375 12.210937-21.90625zm114.152344-4.296875c11.070312 11.820312 18.03125 26.898438 19.847656 42.992188h-29.503906l2.476562-2.585938c3.210938-3.347656 3.097657-8.660156-.25-11.867188-1.558593-1.496093-3.636718-2.332031-5.800781-2.335937h-7.71875zm-25.769531 59.777344h45.617187c-1.816406 16.175781-8.835937 31.328125-20 43.175781l-34.21875-34.21875zm12.867187 54.160156c-10.113281 6.863281-21.753906 11.148438-33.902344 12.492188v-41.472657c-.027343-.925781-.210937-1.839843-.542968-2.703125l1.351562-1.410156zm-50.6875 12.433594c-7.203125-.78125-14.257812-2.597656-20.941406-5.390625l20.941406-21.804688zm8.394532-175.707032c55.625.011719 100.710937 45.117188 100.695312 100.742188-.011719 55.628906-45.117188 100.710938-100.742188 100.699219-16.628906-.003907-32.996093-4.125-47.644531-11.996094l6.195313-6.453125c45.496094 22.886719 100.933594 4.554688 123.820312-40.941406 22.886719-45.5 4.558594-100.9375-40.941406-123.824219s-100.9375-4.554687-123.824219 40.941406c-2.636719 5.242188-4.765625 10.726563-6.363281 16.371094h-8.703125c11.710937-44.3125 51.671875-75.273437 97.507813-75.539063zm22.273437 92.324219-1.132813 1.183594c-1.503906.820313-2.714843 2.085937-3.472656 3.617187l-12.019531 12.523438c-1.199219.390625-2.289063 1.046875-3.191406 1.921875-.933594.96875-1.609375 2.15625-1.972657 3.449219l-149.226562 155.449218c-1.503906 1.5625-2.339844 3.648438-2.339844 5.816407v177.890625c-.007812 4.457031 3.472656 8.144531 7.921875 8.394531l122.074219 6.773437c2.503906.203126 4.367188 2.398438 4.164062 4.902344-.191406 2.316406-2.09375 4.117188-4.414062 4.175782h-276.28125c-2.511719-.011719-4.539062-2.058594-4.523438-4.570313.011719-2.398437 1.882813-4.375 4.273438-4.519531l122.074219-6.773438c4.449219-.246094 7.929687-3.933594 7.921875-8.390625v-177.882812c0-2.167969-.835938-4.253907-2.339844-5.816407l-171.015625-178.144531zm0 0" fill="url(#b)"/><path d="m210.328125 260.371094c12.851563.027344 25.183594-5.074219 34.261719-14.175782l5.246094-5.246093c3.222656-3.332031 3.128906-8.648438-.207032-11.867188-3.25-3.140625-8.40625-3.140625-11.660156 0l-5.246094 5.246094c-12.378906 12.34375-32.410156 12.34375-44.789062 0l-74.851563-74.851563h206.359375c4.636719 0 8.394532-3.757812 8.394532-8.394531 0-4.632812-3.757813-8.394531-8.394532-8.394531h-223.148437l-14.324219-14.324219c-3.335938-3.222656-8.648438-3.128906-11.871094.203125-3.140625 3.253906-3.140625 8.410156 0 11.664063l16.789063 16.785156 89.179687 89.183594c9.078125 9.097656 21.410156 14.199219 34.261719 14.171875zm0 0" fill="url(#c)"/></svg>